<svg xmlns="http://www.w3.org/2000/svg" version="1.1" height="200px" width="400px"> <g>
  <g>
    <g>
      <g fill="#082d20">
        <g>
          <path x="0" y="0" d="M85.05561,86.25001L79.88684,86.25001L79.88684,107.56127L73.04815,107.56127L73.04815,51.89754L85.05561,51.89754c6.36157,0 10.89419,1.28557 13.59786,3.8567c2.70367,2.57113 4.0555,7.01098 4.0555,13.31954c0,4.34707 -0.6229,7.77967 -1.86871,10.29779c-1.24581,2.51812 -3.22054,4.30731 -5.92421,5.36757L104.0608,107.56127L97.06308,107.56127L88.31592,86.17049c-0.68917,0.05301 -1.77594,0.07952 -3.2603,0.07952z M95.79076,70.82321L95.79076,67.32434c0,-1.48437 -0.02651,-2.58439 -0.07952,-3.30006c-0.05301,-0.71568 -0.25181,-1.57714 -0.5964,-2.58439c-0.34459,-1.00725 -0.88797,-1.74943 -1.63015,-2.22655c-1.85546,-1.11327 -4.63864,-1.66991 -8.34956,-1.66991L79.88684,57.54343L79.88684,80.60412L85.13513,80.60412c3.71092,0 6.4941,-0.55664 8.34956,-1.66991c0.74218,-0.47712 1.28557,-1.2193 1.63015,-2.22655c0.34459,-1.00725 0.54338,-1.86871 0.5964,-2.58439c0.05301,-0.71568 0.07952,-1.8157 0.07952,-3.30006z"></path>
          <polygon points="114.34,64.74 119.6,64.74 119.6,107.56 114.34,107.56 114.34,64.74"></polygon>
          <polygon points="130.61,64.74 138.32,64.74 150.61,100.47 150.98,100.47 150.98,64.74 156.12,64.74 156.12,107.56 148.41,107.56 136.11,71.84 135.75,71.84 135.75,107.56 130.61,107.56 130.61,64.74"></polygon>
          <path d="M190.49251,105.97088c-1.1826,0.65247 -2.83416,1.20299 -4.95468,1.65156c-2.12052,0.44857 -3.95559,0.67286 -5.5052,0.67286c-1.54961,0 -2.86475,-0.05097 -3.9454,-0.15292c-1.08065,-0.10195 -2.04916,-0.30584 -2.90552,-0.61169c-0.85637,-0.30584 -1.61078,-0.60149 -2.26325,-0.88695c-0.65247,-0.28546 -1.23357,-0.77481 -1.74331,-1.46805c-0.50974,-0.69325 -0.92773,-1.28455 -1.25396,-1.7739c-0.32623,-0.48935 -0.60149,-1.28455 -0.82578,-2.38559c-0.22429,-1.10104 -0.3976,-2.02877 -0.51994,-2.78319c-0.12234,-0.75442 -0.2039,-1.92682 -0.24468,-3.51721c-0.08156,-3.09923 -0.12234,-6.01495 -0.12234,-8.74716c0,-2.73221 0.02039,-4.79157 0.06117,-6.17806c0.04078,-1.3865 0.13253,-3.05845 0.27526,-5.01585c0.14273,-1.95741 0.3976,-3.3541 0.76461,-4.19007c0.36701,-0.83598 0.85637,-1.79429 1.46805,-2.87494c0.61169,-1.08065 1.40689,-1.82487 2.38559,-2.23267c2.60987,-0.9787 5.47462,-1.46805 8.59424,-1.46805c3.11962,0 6.16787,0.44857 9.14476,1.34572L187.98459,69.33068c-2.73221,-0.65247 -5.17897,-0.9787 -7.34027,-0.9787c-2.1613,0 -3.78228,0.14273 -4.86293,0.42818c-1.08065,0.28546 -1.90643,0.61169 -2.47734,0.9787c-0.57091,0.36701 -0.9889,0.95831 -1.25396,1.7739c-0.26507,0.81559 -0.41799,1.51903 -0.45877,2.11033c-0.04078,0.5913 -0.06117,1.49864 -0.06117,2.72202L171.53014,95.75567c0,3.26234 0.32623,5.24014 0.9787,5.93339c1.06026,1.10104 2.20208,1.75351 3.42546,1.95741c1.22338,0.2039 2.69143,0.30584 4.40416,0.30584c1.71273,0 3.46624,-0.18351 5.26053,-0.55052L185.599,89.51643L179.78795,89.51643L179.78795,85.8463L190.49251,85.8463L190.49251,105.97088z"></path>
          <polygon points="202.42,77.77 199.06,77.77 198.14,64.74 203.4,64.74 202.42,77.77"></polygon>
          <path d="M232.76025,95.878c0,0 0,0.95831 0,2.87494c0,1.91663 -0.91753,3.98618 -2.7526,6.20865c-1.83507,2.22247 -4.84254,3.33371 -9.02242,3.33371c-4.17988,0 -8.00294,-0.75442 -11.46918,-2.26325L210.61709,102.23957c3.26234,1.14182 6.60625,1.71273 10.03171,1.71273c2.40598,0 4.16968,-0.5913 5.29111,-1.7739c1.12143,-1.1826 1.68215,-2.99728 1.68215,-5.44404c0,-2.44676 -0.30584,-4.30222 -0.91753,-5.56637c-0.61169,-1.26416 -1.89624,-2.03896 -3.85364,-2.32442L216.79516,87.98721c-2.85455,-0.44857 -4.76098,-1.61078 -5.7193,-3.48663c-0.95831,-1.87585 -1.43747,-4.71001 -1.43747,-8.50248c0,-3.79247 0.9889,-6.73878 2.96669,-8.83891c1.9778,-2.10013 4.71001,-3.1502 8.19664,-3.1502c3.48663,0 6.98345,0.65247 10.49047,1.95741L230.19115,69.63653c-3.05845,-0.85637 -5.82124,-1.28455 -8.28839,-1.28455c-2.46715,0 -4.27163,0.49955 -5.41345,1.49864c-1.14182,0.99909 -1.71273,2.86475 -1.71273,5.59696c0,2.73221 0.29565,4.68962 0.88695,5.87222c0.5913,1.1826 1.78409,1.89624 3.57838,2.14091L224.99179,84.31707c2.60987,0.40779 4.55709,1.47825 5.84163,3.21137c1.28455,1.73312 1.92682,4.51631 1.92682,8.34956z"></path>
        </g>
        <g>
          <path x="0" y="0" d="M251.11093,51.89754L267.01485,51.89754c4.29406,0 8.00498,0.58314 11.13275,1.74943c1.32533,0.47712 2.38559,1.36509 3.18078,2.66391c0.7952,1.29882 1.43135,2.47836 1.90847,3.53862c0.47712,1.06026 0.7952,2.80969 0.95424,5.24829c0.31808,3.92297 0.47712,8.65439 0.47712,14.19425c0,5.53987 -0.05301,9.44958 -0.15904,11.72914c-0.10603,2.27956 -0.43736,4.78443 -0.994,7.5146c-0.55664,2.73017 -1.47111,4.57238 -2.74343,5.52661c-3.12777,2.33258 -7.7134,3.49886 -13.75689,3.49886L251.11093,107.56127z M267.09437,57.62295L257.94962,57.62295L257.94962,101.67682L267.09437,101.67682c3.6579,0 6.44109,-0.60965 8.34956,-1.82895c1.32533,-0.84821 2.06751,-2.51812 2.22655,-5.00974c0.05301,-0.7952 0.07952,-1.98799 0.07952,-3.57838L277.75,68.04002c0,-1.59039 -0.02651,-2.76993 -0.07952,-3.53862c-0.05301,-0.76869 -0.25181,-1.68317 -0.5964,-2.74343c-0.34459,-1.06026 -0.88797,-1.82895 -1.63015,-2.30607c-1.90847,-1.2193 -4.69166,-1.82895 -8.34956,-1.82895z"></path>
          <path x="0" y="0" d="M298.15596,107.56127L292.77309,107.56127L302.92714,64.74301L311.8578,64.74301L322.01185,107.56127L316.62898,107.56127L314.12105,96.73437L300.66389,96.73437z M313.08118,92.45254L307.57598,68.65783L307.20896,68.65783L301.64259,92.45254L313.08118,92.45254z"></path>
          <polygon points="324.76,69.02 324.76,64.74 348.01,64.74 348.01,69.02 339.02,69.02 339.02,107.56 333.76,107.56 333.76,69.02 324.76,69.02"></polygon>
          <path x="0" y="0" d="M356.14411,107.56127L350.76125,107.56127L360.91529,64.74301L369.84596,64.74301L380,107.56127L374.61713,107.56127L372.10921,96.73437L358.65204,96.73437z M371.06933,92.45254L365.56413,68.65783L365.19712,68.65783L359.63074,92.45254L371.06933,92.45254z"></path>
        </g>
      </g>
      <g></g>
    </g>
    <g fill="#082d20">
      <polygon points="20,114.26 35.41,114.26 34.93,117.6 24.1,117.6 24.1,129.25 33.98,129.25 33.98,132.59 24.1,132.59 24.1,147.66 20,147.66 20,114.26"></polygon>
      <polygon points="39.67,121.97 42.82,121.97 42.82,147.66 39.67,147.66 39.67,121.97"></polygon>
      <polygon points="49.43,121.97 54.06,121.97 61.43,143.4 61.65,143.4 61.65,121.97 64.74,121.97 64.74,147.66 60.11,147.66 52.73,126.23 52.51,126.23 52.51,147.66 49.43,147.66 49.43,121.97"></polygon>
      <path x="0" y="0" d="M72.55268,147.66205L69.32296,147.66205L75.41539,121.97109L80.77379,121.97109L86.86621,147.66205L83.63649,147.66205L82.13174,141.16591L74.05744,141.16591z M81.50781,138.59681L78.20469,124.31998L77.98448,124.31998L74.64466,138.59681L81.50781,138.59681z"></path>
      <polygon points="91.45,121.97 96.08,121.97 103.46,143.4 103.68,143.4 103.68,121.97 106.76,121.97 106.76,147.66 102.13,147.66 94.76,126.23 94.54,126.23 94.54,147.66 91.45,147.66 91.45,121.97"></polygon>
      <path d="M115.80524,122.42986c0,0 0.14986,-0.05811 0.44959,-0.17433c0.29973,-0.11622 0.86554,-0.26608 1.69744,-0.44959c0.8319,-0.18351 1.97576,-0.27526 3.43158,-0.27526c1.45582,0 2.89329,0.22021 4.31241,0.66062L125.14573,124.57689c-1.22338,-0.29361 -2.42841,-0.44042 -3.61508,-0.44042c-1.18668,0 -2.07363,0.04894 -2.66085,0.14681c-0.58722,0.09787 -1.05822,0.26914 -1.413,0.51382c-0.35478,0.24468 -0.63616,0.47712 -0.84413,0.69733c-0.20797,0.22021 -0.3609,0.56275 -0.45877,1.02764c-0.09787,0.58722 -0.14681,1.43135 -0.14681,2.53239L116.0071,140.57868c0,1.95741 0.19574,3.14408 0.58722,3.56003c0.63616,0.66062 1.32125,1.05211 2.05528,1.17444c0.73403,0.12234 1.67603,0.18351 2.826,0.18351c1.14998,0 2.48346,-0.19574 4.00045,-0.58722L126.17337,147.07482c-1.63933,0.68509 -3.38876,1.02764 -5.24829,1.02764c-1.76167,0 -2.98504,-0.12234 -3.67014,-0.36701c-0.68509,-0.24468 -1.22338,-0.45265 -1.61486,-0.62392c-0.39148,-0.17127 -0.74014,-0.46488 -1.04599,-0.88083c-0.30584,-0.41595 -0.55664,-0.77073 -0.75238,-1.06434c-0.19574,-0.29361 -0.3609,-0.77073 -0.49547,-1.43135c-0.13457,-0.66062 -0.23856,-1.21726 -0.31196,-1.66991c-0.0734,-0.45265 -0.12234,-1.15609 -0.14681,-2.11033c-0.04894,-1.85954 -0.0734,-3.60897 -0.0734,-5.24829c0,-1.63933 0.01223,-2.87494 0.0367,-3.70684c0.02447,-0.8319 0.07952,-1.83507 0.16516,-3.00951c0.08564,-1.17444 0.23856,-2.01246 0.45877,-2.51404c0.22021,-0.50159 0.51382,-1.07657 0.88083,-1.72496c0.36701,-0.64839 0.85025,-1.08881 1.4497,-1.32125z"></path>
      <polygon points="130.94,147.66 130.94,121.97 143.17,121.97 142.8,124.54 134.1,124.54 134.1,133.5 142.07,133.5 142.07,136.06 134.1,136.06 134.1,145.09 143.53,145.09 143.53,147.66 130.94,147.66"></polygon>
      <polygon points="157.48,121.97 169.33,121.97 168.97,124.54 160.64,124.54 160.64,133.5 168.23,133.5 168.23,136.06 160.64,136.06 160.64,147.66 157.48,147.66 157.48,121.97"></polygon>
      <path x="0" y="0" d="M186.08835,147.23998c0,0 -0.14986,0.05811 -0.44959,0.17433c-0.29973,0.11622 -0.87166,0.25997 -1.71579,0.43124c-0.84413,0.17127 -1.75555,0.25691 -2.73425,0.25691c-0.9787,0 -1.79225,-0.03058 -2.44064,-0.09175c-0.64839,-0.06117 -1.2295,-0.18351 -1.74331,-0.36701c-0.51382,-0.18351 -0.96647,-0.3609 -1.35795,-0.53217c-0.39148,-0.17127 -0.74014,-0.46488 -1.04599,-0.88083c-0.30584,-0.41595 -0.55664,-0.77073 -0.75238,-1.06434c-0.19574,-0.29361 -0.3609,-0.77073 -0.49547,-1.43135c-0.13457,-0.66062 -0.23856,-1.21726 -0.31196,-1.66991c-0.0734,-0.45265 -0.12234,-1.15609 -0.14681,-2.11033c-0.04894,-1.85954 -0.0734,-3.60897 -0.0734,-5.24829c0,-1.63933 0.01223,-2.87494 0.0367,-3.70684c0.02447,-0.8319 0.07952,-1.83507 0.16516,-3.00951c0.08564,-1.17444 0.23856,-2.01246 0.45877,-2.51404c0.22021,-0.50159 0.51382,-1.07657 0.88083,-1.72496c0.36701,-0.64839 0.84413,-1.09492 1.43135,-1.3396c1.56592,-0.58722 3.21749,-0.88083 4.95468,-0.88083c1.7372,0 3.1135,0.17739 4.1289,0.53217c1.0154,0.35478 1.81672,0.77685 2.40394,1.2662c0.58722,0.48935 1.00929,1.39465 1.2662,2.7159c0.25691,1.32125 0.40983,2.52016 0.45877,3.59673c0.04894,1.07657 0.0734,2.64862 0.0734,4.71613c0,2.06751 -0.01223,3.51721 -0.0367,4.34911c-0.02447,0.8319 -0.07952,1.83507 -0.16516,3.00951c-0.08564,1.17444 -0.23856,2.01246 -0.45877,2.51404c-0.22021,0.50159 -0.51382,1.07046 -0.88083,1.70661c-0.36701,0.63616 -0.85025,1.07046 -1.4497,1.3029z M185.88649,140.57868L185.88649,129.05446c0,-1.95741 -0.20797,-3.14408 -0.62392,-3.56003c-0.61169,-0.66062 -1.27843,-1.05211 -2.00022,-1.17444c-0.72179,-0.12234 -1.48641,-0.18351 -2.29384,-0.18351c-0.80743,0 -1.50476,0.04894 -2.09198,0.14681c-0.58722,0.09787 -1.05822,0.26914 -1.413,0.51382c-0.35478,0.24468 -0.63616,0.47712 -0.84413,0.69733c-0.20797,0.22021 -0.3609,0.56275 -0.45877,1.02764c-0.09787,0.58722 -0.14681,1.43135 -0.14681,2.53239L176.01382,140.57868c0,1.95741 0.19574,3.14408 0.58722,3.56003c0.63616,0.66062 1.32125,1.05211 2.05528,1.17444c0.73403,0.12234 1.50476,0.18351 2.31219,0.18351c0.80743,0 1.49864,-0.04894 2.07363,-0.14681c0.57499,-0.09787 1.03987,-0.26914 1.39465,-0.51382c0.35478,-0.24468 0.63616,-0.47712 0.84413,-0.69733c0.20797,-0.22021 0.34866,-0.56275 0.42207,-1.02764c0.12234,-0.58722 0.18351,-1.43135 0.18351,-2.53239z"></path>
      <path x="0" y="0" d="M200.67714,137.82608L198.29155,137.82608L198.29155,147.66205L195.13523,147.66205L195.13523,121.97109L200.67714,121.97109c2.93611,0 5.02809,0.59334 6.27593,1.78002c1.24785,1.18668 1.87177,3.23584 1.87177,6.14748c0,2.00634 -0.28749,3.59062 -0.86248,4.75283c-0.57499,1.16221 -1.48641,1.98799 -2.73425,2.47734L209.44877,147.66205L206.21905,147.66205L202.1819,137.78938c-0.31808,0.02447 -0.81966,0.0367 -1.50476,0.0367z M205.63182,130.70602L205.63182,129.09116c0,-0.68509 -0.01223,-1.19279 -0.0367,-1.52311c-0.02447,-0.33031 -0.11622,-0.72791 -0.27526,-1.19279c-0.15904,-0.46488 -0.40983,-0.80743 -0.75238,-1.02764c-0.85637,-0.51382 -2.14091,-0.77073 -3.85364,-0.77073L198.29155,124.57689L198.29155,135.22028L200.71384,135.22028c1.71273,0 2.99728,-0.25691 3.85364,-0.77073c0.34255,-0.22021 0.59334,-0.56275 0.75238,-1.02764c0.15904,-0.46488 0.25079,-0.86248 0.27526,-1.19279c0.02447,-0.33031 0.0367,-0.83801 0.0367,-1.52311z"></path>
      <polygon points="224.13,147.66 224.13,121.97 236.35,121.97 235.98,124.54 227.29,124.54 227.29,133.5 235.25,133.5 235.25,136.06 227.29,136.06 227.29,145.09 236.72,145.09 236.72,147.66 224.13,147.66"></polygon>
      <polygon points="250.41,147.66 245.49,147.66 239.47,121.97 242.59,121.97 247.84,145.57 248.06,145.57 253.31,121.97 256.43,121.97 250.41,147.66"></polygon>
      <polygon points="261.01,147.66 261.01,121.97 273.24,121.97 272.87,124.54 264.17,124.54 264.17,133.5 272.13,133.5 272.13,136.06 264.17,136.06 264.17,145.09 273.6,145.09 273.6,147.66 261.01,147.66"></polygon>
      <path x="0" y="0" d="M283.91583,137.82608L281.53024,137.82608L281.53024,147.66205L278.37393,147.66205L278.37393,121.97109L283.91583,121.97109c2.93611,0 5.02809,0.59334 6.27593,1.78002c1.24785,1.18668 1.87177,3.23584 1.87177,6.14748c0,2.00634 -0.28749,3.59062 -0.86248,4.75283c-0.57499,1.16221 -1.48641,1.98799 -2.73425,2.47734L292.68746,147.66205L289.45774,147.66205L285.42059,137.78938c-0.31808,0.02447 -0.81966,0.0367 -1.50476,0.0367z M288.87052,130.70602L288.87052,129.09116c0,-0.68509 -0.01223,-1.19279 -0.0367,-1.52311c-0.02447,-0.33031 -0.11622,-0.72791 -0.27526,-1.19279c-0.15904,-0.46488 -0.40983,-0.80743 -0.75238,-1.02764c-0.85637,-0.51382 -2.14091,-0.77073 -3.85364,-0.77073L281.53024,124.57689L281.53024,135.22028L283.95253,135.22028c1.71273,0 2.99728,-0.25691 3.85364,-0.77073c0.34255,-0.22021 0.59334,-0.56275 0.75238,-1.02764c0.15904,-0.46488 0.25079,-0.86248 0.27526,-1.19279c0.02447,-0.33031 0.0367,-0.83801 0.0367,-1.52311z"></path>
      <polygon points="305.13,147.66 302.19,147.66 302.19,139.4 295.81,121.97 299.04,121.97 303.55,135.95 303.77,135.95 308.29,121.97 311.52,121.97 305.13,139.4 305.13,147.66"></polygon>
      <path x="0" y="0" d="M328.45294,147.23998c0,0 -0.14986,0.05811 -0.44959,0.17433c-0.29973,0.11622 -0.87166,0.25997 -1.71579,0.43124c-0.84413,0.17127 -1.75555,0.25691 -2.73425,0.25691c-0.9787,0 -1.79225,-0.03058 -2.44064,-0.09175c-0.64839,-0.06117 -1.2295,-0.18351 -1.74331,-0.36701c-0.51382,-0.18351 -0.96647,-0.3609 -1.35795,-0.53217c-0.39148,-0.17127 -0.74014,-0.46488 -1.04599,-0.88083c-0.30584,-0.41595 -0.55664,-0.77073 -0.75238,-1.06434c-0.19574,-0.29361 -0.3609,-0.77073 -0.49547,-1.43135c-0.13457,-0.66062 -0.23856,-1.21726 -0.31196,-1.66991c-0.0734,-0.45265 -0.12234,-1.15609 -0.14681,-2.11033c-0.04894,-1.85954 -0.0734,-3.60897 -0.0734,-5.24829c0,-1.63933 0.01223,-2.87494 0.0367,-3.70684c0.02447,-0.8319 0.07952,-1.83507 0.16516,-3.00951c0.08564,-1.17444 0.23856,-2.01246 0.45877,-2.51404c0.22021,-0.50159 0.51382,-1.07657 0.88083,-1.72496c0.36701,-0.64839 0.84413,-1.09492 1.43135,-1.3396c1.56592,-0.58722 3.21749,-0.88083 4.95468,-0.88083c1.7372,0 3.1135,0.17739 4.1289,0.53217c1.0154,0.35478 1.81672,0.77685 2.40394,1.2662c0.58722,0.48935 1.00929,1.39465 1.2662,2.7159c0.25691,1.32125 0.40983,2.52016 0.45877,3.59673c0.04894,1.07657 0.0734,2.64862 0.0734,4.71613c0,2.06751 -0.01223,3.51721 -0.0367,4.34911c-0.02447,0.8319 -0.07952,1.83507 -0.16516,3.00951c-0.08564,1.17444 -0.23856,2.01246 -0.45877,2.51404c-0.22021,0.50159 -0.51382,1.07046 -0.88083,1.70661c-0.36701,0.63616 -0.85025,1.07046 -1.4497,1.3029z M328.25108,140.57868L328.25108,129.05446c0,-1.95741 -0.20797,-3.14408 -0.62392,-3.56003c-0.61169,-0.66062 -1.27843,-1.05211 -2.00022,-1.17444c-0.72179,-0.12234 -1.48641,-0.18351 -2.29384,-0.18351c-0.80743,0 -1.50476,0.04894 -2.09198,0.14681c-0.58722,0.09787 -1.05822,0.26914 -1.413,0.51382c-0.35478,0.24468 -0.63616,0.47712 -0.84413,0.69733c-0.20797,0.22021 -0.3609,0.56275 -0.45877,1.02764c-0.09787,0.58722 -0.14681,1.43135 -0.14681,2.53239L318.37841,140.57868c0,1.95741 0.19574,3.14408 0.58722,3.56003c0.63616,0.66062 1.32125,1.05211 2.05528,1.17444c0.73403,0.12234 1.50476,0.18351 2.31219,0.18351c0.80743,0 1.49864,-0.04894 2.07363,-0.14681c0.57499,-0.09787 1.03987,-0.26914 1.39465,-0.51382c0.35478,-0.24468 0.63616,-0.47712 0.84413,-0.69733c0.20797,-0.22021 0.34866,-0.56275 0.42207,-1.02764c0.12234,-0.58722 0.18351,-1.43135 0.18351,-2.53239z"></path>
      <polygon points="337.5,121.97 342.12,121.97 349.5,143.4 349.72,143.4 349.72,121.97 352.8,121.97 352.8,147.66 348.18,147.66 340.8,126.23 340.58,126.23 340.58,147.66 337.5,147.66 337.5,121.97"></polygon>
      <polygon points="359.41,147.66 359.41,121.97 371.63,121.97 371.27,124.54 362.57,124.54 362.57,133.5 370.53,133.5 370.53,136.06 362.57,136.06 362.57,145.09 372,145.09 372,147.66 359.41,147.66"></polygon>
      <path d="M377.00884,144.06531c0,0 0.04588,-0.00612 0.13763,-0.01835c0.09175,-0.01223 0.3456,-0.01835 0.76155,-0.01835c0.41595,0 0.71568,0.01223 0.89918,0.0367c0.18351,0.02447 0.38536,0.09787 0.60557,0.22021c0.22021,0.12234 0.37313,0.3242 0.45877,0.60557c0.08564,0.28138 0.12845,0.66674 0.12845,1.15609c0,0.48935 -0.04282,0.88083 -0.12845,1.17444c-0.08564,0.29361 -0.23856,0.50159 -0.45877,0.62392c-0.22021,0.12234 -0.42207,0.19574 -0.60557,0.22021c-0.18351,0.02447 -0.48323,0.0367 -0.89918,0.0367c-0.41595,0 -0.71568,-0.01223 -0.89918,-0.0367c-0.18351,-0.02447 -0.38536,-0.09787 -0.60557,-0.22021c-0.22021,-0.12234 -0.37313,-0.33031 -0.45877,-0.62392c-0.08564,-0.29361 -0.12845,-0.68509 -0.12845,-1.17444c0,-0.48935 0.04282,-0.87472 0.12845,-1.15609c0.08564,-0.28138 0.23856,-0.48323 0.45877,-0.60557c0.22021,-0.12234 0.42207,-0.19574 0.60557,-0.22021z"></path>
    </g>
  </g>
  <g></g>
</g>
</svg>